HIERARCHY
ROOT Hips
{
	OFFSET 0.000000 100.481300 0.000000
	CHANNELS 6 Xposition Yposition Zposition Xrotation Yrotation Zrotation
	JOINT Spine
	{
		OFFSET -0.279200 12.230698 -2.892100
		CHANNELS 3 Xrotation Yrotation Zrotation
		JOINT Spine1
		{
			OFFSET -0.325700 14.269203 -3.374200
			CHANNELS 3 Xrotation Yrotation Zrotation
			JOINT Spine2
			{
				OFFSET -0.372300 16.307602 -0.352600
				CHANNELS 3 Xrotation Yrotation Zrotation
				JOINT Neck
				{
					OFFSET -0.418800 17.814194 8.416900
					CHANNELS 3 Xrotation Yrotation Zrotation
					JOINT Head
					{
						OFFSET 0.000000 7.031097 3.806800
						CHANNELS 3 Xrotation Yrotation Zrotation
						JOINT HeadTop_End
						{
							OFFSET 0.000000 24.646606 12.978600
							CHANNELS 3 Xrotation Yrotation Zrotation
							End Site
							{
								OFFSET 0.000000 27.854965 0.000000
							}
						}
					}
				}
				JOINT LeftShoulder
				{
					OFFSET 16.952999 14.495407 -7.737500
					CHANNELS 3 Xrotation Yrotation Zrotation
					JOINT LeftArm
					{
						OFFSET 9.308998 -2.777710 0.208600
						CHANNELS 3 Xrotation Yrotation Zrotation
						JOINT LeftForeArm
						{
							OFFSET 29.972298 0.000000 0.000000
							CHANNELS 3 Xrotation Yrotation Zrotation
							JOINT LeftHand
							{
								OFFSET 26.026505 0.000000 0.000000
								CHANNELS 3 Xrotation Yrotation Zrotation
								JOINT LeftHandThumb1
								{
									OFFSET 12.240501 -7.147949 9.207150
									CHANNELS 3 Xrotation Yrotation Zrotation
									JOINT LeftHandThumb2
									{
										OFFSET 4.138618 -2.389435 2.389433
										CHANNELS 3 Xrotation Yrotation Zrotation
										JOINT LeftHandThumb3
										{
											OFFSET 2.726913 -1.574387 1.574386
											CHANNELS 3 Xrotation Yrotation Zrotation
											JOINT LeftHandThumb4
											{
												OFFSET 3.941010 -2.275345 2.275342
												CHANNELS 3 Xrotation Yrotation Zrotation
												End Site
												{
													OFFSET -0.005798 5.087799 0.009903
												}
											}
										}
									}
								}
								JOINT LeftHandIndex1
								{
									OFFSET 24.424698 -1.985611 5.953459
									CHANNELS 3 Xrotation Yrotation Zrotation
									JOINT LeftHandIndex2
									{
										OFFSET 6.426697 0.000000 0.000000
										CHANNELS 3 Xrotation Yrotation Zrotation
										JOINT LeftHandIndex3
										{
											OFFSET 5.337898 0.000000 0.000000
											CHANNELS 3 Xrotation Yrotation Zrotation
											JOINT LeftHandIndex4
											{
												OFFSET 4.409401 0.000000 0.000000
												CHANNELS 3 Xrotation Yrotation Zrotation
												End Site
												{
													OFFSET 0.000000 4.409363 0.014373
												}
											}
										}
									}
								}
								JOINT LeftHandMiddle1
								{
									OFFSET 23.810104 0.000000 0.000000
									CHANNELS 3 Xrotation Yrotation Zrotation
									JOINT LeftHandMiddle2
									{
										OFFSET 7.176498 0.000000 0.000000
										CHANNELS 3 Xrotation Yrotation Zrotation
										JOINT LeftHandMiddle3
										{
											OFFSET 6.774902 0.000000 0.000000
											CHANNELS 3 Xrotation Yrotation Zrotation
											JOINT LeftHandMiddle4
											{
												OFFSET 5.403328 0.000000 0.000000
												CHANNELS 3 Xrotation Yrotation Zrotation
												End Site
												{
													OFFSET -0.027702 5.403244 0.017414
												}
											}
										}
									}
								}
								JOINT LeftHandRing1
								{
									OFFSET 22.908401 -0.839279 -6.020567
									CHANNELS 3 Xrotation Yrotation Zrotation
									JOINT LeftHandRing2
									{
										OFFSET 6.337502 0.000000 0.000000
										CHANNELS 3 Xrotation Yrotation Zrotation
										JOINT LeftHandRing3
										{
											OFFSET 5.779297 0.000000 0.000000
											CHANNELS 3 Xrotation Yrotation Zrotation
											JOINT LeftHandRing4
											{
												OFFSET 4.965698 0.000000 0.000000
												CHANNELS 3 Xrotation Yrotation Zrotation
												End Site
												{
													OFFSET 0.000000 4.965668 0.016186
												}
											}
										}
									}
								}
								JOINT LeftHandPinky1
								{
									OFFSET 20.037003 -1.530319 -10.950146
									CHANNELS 3 Xrotation Yrotation Zrotation
									JOINT LeftHandPinky2
									{
										OFFSET 5.254700 0.000000 0.000000
										CHANNELS 3 Xrotation Yrotation Zrotation
										JOINT LeftHandPinky3
										{
											OFFSET 4.810204 0.000000 0.000000
											CHANNELS 3 Xrotation Yrotation Zrotation
											JOINT LeftHandPinky4
											{
												OFFSET 3.647202 0.000000 0.000000
												CHANNELS 3 Xrotation Yrotation Zrotation
												End Site
												{
													OFFSET 0.000000 3.647186 0.011889
												}
											}
										}
									}
								}
							}
						}
					}
				}
				JOINT RightShoulder
				{
					OFFSET -15.141001 14.495407 -7.737500
					CHANNELS 3 Xrotation Yrotation Zrotation
					JOINT RightArm
					{
						OFFSET -9.308998 -2.777710 0.208500
						CHANNELS 3 Xrotation Yrotation Zrotation
						JOINT RightForeArm
						{
							OFFSET -29.972300 0.000000 0.000000
							CHANNELS 3 Xrotation Yrotation Zrotation
							JOINT RightHand
							{
								OFFSET -26.026505 0.000000 0.000000
								CHANNELS 3 Xrotation Yrotation Zrotation
								JOINT RightHandThumb1
								{
									OFFSET -12.240601 -7.148026 9.207092
									CHANNELS 3 Xrotation Yrotation Zrotation
									JOINT RightHandThumb2
									{
										OFFSET -4.138618 -2.389435 2.389433
										CHANNELS 3 Xrotation Yrotation Zrotation
										JOINT RightHandThumb3
										{
											OFFSET -2.726974 -1.574417 1.574421
											CHANNELS 3 Xrotation Yrotation Zrotation
											JOINT RightHandThumb4
											{
												OFFSET -3.941010 -2.275345 2.275343
												CHANNELS 3 Xrotation Yrotation Zrotation
												End Site
												{
													OFFSET 0.005814 5.087799 0.009927
												}
											}
										}
									}
								}
								JOINT RightHandIndex1
								{
									OFFSET -24.424698 -1.985657 5.953444
									CHANNELS 3 Xrotation Yrotation Zrotation
									JOINT RightHandIndex2
									{
										OFFSET -6.426697 0.000000 0.000000
										CHANNELS 3 Xrotation Yrotation Zrotation
										JOINT RightHandIndex3
										{
											OFFSET -5.337898 0.000000 0.000000
											CHANNELS 3 Xrotation Yrotation Zrotation
											JOINT RightHandIndex4
											{
												OFFSET -4.409401 0.000000 0.000000
												CHANNELS 3 Xrotation Yrotation Zrotation
												End Site
												{
													OFFSET 0.000000 4.409363 0.014408
												}
											}
										}
									}
								}
								JOINT RightHandMiddle1
								{
									OFFSET -23.810097 0.000000 0.000000
									CHANNELS 3 Xrotation Yrotation Zrotation
									JOINT RightHandMiddle2
									{
										OFFSET -7.176498 0.000000 0.000000
										CHANNELS 3 Xrotation Yrotation Zrotation
										JOINT RightHandMiddle3
										{
											OFFSET -6.774902 0.000000 0.000000
											CHANNELS 3 Xrotation Yrotation Zrotation
											JOINT RightHandMiddle4
											{
												OFFSET -5.403328 0.000000 0.000000
												CHANNELS 3 Xrotation Yrotation Zrotation
												End Site
												{
													OFFSET 0.027702 5.403244 0.017457
												}
											}
										}
									}
								}
								JOINT RightHandRing1
								{
									OFFSET -22.908302 -0.839325 -6.020576
									CHANNELS 3 Xrotation Yrotation Zrotation
									JOINT RightHandRing2
									{
										OFFSET -6.337502 0.000000 0.000000
										CHANNELS 3 Xrotation Yrotation Zrotation
										JOINT RightHandRing3
										{
											OFFSET -5.779297 0.000000 0.000000
											CHANNELS 3 Xrotation Yrotation Zrotation
											JOINT RightHandRing4
											{
												OFFSET -4.965698 0.000000 0.000000
												CHANNELS 3 Xrotation Yrotation Zrotation
												End Site
												{
													OFFSET 0.000000 4.965668 0.016226
												}
											}
										}
									}
								}
								JOINT RightHandPinky1
								{
									OFFSET -20.037003 -1.530334 -10.950259
									CHANNELS 3 Xrotation Yrotation Zrotation
									JOINT RightHandPinky2
									{
										OFFSET -5.254700 0.000000 0.000000
										CHANNELS 3 Xrotation Yrotation Zrotation
										JOINT RightHandPinky3
										{
											OFFSET -4.810204 0.000000 0.000000
											CHANNELS 3 Xrotation Yrotation Zrotation
											JOINT RightHandPinky4
											{
												OFFSET -3.647202 0.000000 0.000000
												CHANNELS 3 Xrotation Yrotation Zrotation
												End Site
												{
													OFFSET 0.000000 3.647186 0.011917
												}
											}
										}
									}
								}
							}
						}
					}
				}
			}
		}
	}
	JOINT LeftUpLeg
	{
		OFFSET 15.427100 -6.655098 0.678600
		CHANNELS 3 Xrotation Yrotation Zrotation
		JOINT LeftLeg
		{
			OFFSET 4.081073 -39.591068 13.024000
			CHANNELS 3 Xrotation Yrotation Zrotation
			JOINT LeftFoot
			{
				OFFSET -4.081074 -37.707932 -15.979700
				CHANNELS 3 Xrotation Yrotation Zrotation
				JOINT LeftToeBase
				{
					OFFSET 5.346399 -15.068900 20.645000
					CHANNELS 3 Xrotation Yrotation Zrotation
					JOINT LeftToe_End
					{
						OFFSET 2.754700 0.931300 11.300900
						CHANNELS 3 Xrotation Yrotation Zrotation
						End Site
						{
							OFFSET 0.000000 11.669021 0.000000
						}
					}
				}
			}
		}
	}
	JOINT RightUpLeg
	{
		OFFSET -15.569500 -6.655098 0.678600
		CHANNELS 3 Xrotation Yrotation Zrotation
		JOINT RightLeg
		{
			OFFSET -4.081825 -39.591045 13.023800
			CHANNELS 3 Xrotation Yrotation Zrotation
			JOINT RightFoot
			{
				OFFSET 4.081824 -37.707954 -15.979600
				CHANNELS 3 Xrotation Yrotation Zrotation
				JOINT RightToeBase
				{
					OFFSET -5.346400 -15.068900 20.645000
					CHANNELS 3 Xrotation Yrotation Zrotation
					JOINT RightToe_End
					{
						OFFSET -2.754700 0.931300 11.300900
						CHANNELS 3 Xrotation Yrotation Zrotation
						End Site
						{
							OFFSET 0.000000 11.669021 0.000000
						}
					}
				}
			}
		}
	}
}
MOTION
Frames: 4
Frame Time: 0.033333
-30.408337 72.956047 -7.375870 27.612787 -7.370800 5.099338 11.023878 0.906715 -3.282631 19.920044 4.220730 -3.324281 19.935724 4.142501 -3.151710 13.643629 7.287821 1.782833 5.086274 43.756722 -5.629396 -0.000000 -0.000002 -0.000000 2.853450 -11.551302 -1.698417 -21.433533 13.104987 -60.165620 -0.000007 -14.814187 0.000006 -33.109687 -30.171913 -20.022961 -1.540033 3.690166 6.142359 3.946764 7.971420 0.752846 -0.575601 1.586242 2.542385 -0.000002 -0.000001 -0.000003 0.000002 -0.000017 0.000002 -0.000002 0.000010 -0.000030 -0.000001 0.000000 -0.000002 -0.000001 0.000000 -0.000001 -0.000000 -0.001945 0.015987 0.000001 0.001930 -0.015988 0.000001 -0.000007 -0.000000 0.000002 0.000001 0.000001 0.000002 -0.000017 0.000002 -0.000002 0.000015 -0.000020 0.000000 -0.000008 -0.000003 0.000000 -0.000000 0.000002 -0.018089 4.054238 0.511068 -0.018088 -4.054238 -0.511071 0.000000 -0.000000 -0.000001 -0.000001 0.000000 -0.000000 0.404853 0.720949 -9.083130 -78.201459 32.168029 69.020332 0.000000 0.040568 -0.000023 7.529151 7.493925 -28.496717 -1.849252 -3.581796 -6.586143 4.645037 -8.656796 -0.231318 -1.269824 0.126055 -2.098671 -0.000003 -0.000003 0.000002 0.000004 -0.000005 -0.000016 0.000000 -0.000007 0.000031 -0.000001 0.000015 0.000020 -0.000001 0.000002 0.000000 0.000004 -0.000004 -0.000016 0.000001 -0.000006 0.000030 -0.000000 0.000006 0.000021 0.000001 -0.000001 0.000000 0.000005 -0.000005 -0.000012 0.000002 -0.000004 0.000027 -0.000001 0.000018 0.000019 0.000000 -0.000002 -0.000000 0.000004 -0.000005 -0.000016 0.000002 -0.000005 0.000032 -0.000002 0.000016 0.000025 0.000002 -0.000000 -0.000001 -51.570387 -9.867868 39.472599 32.357307 -6.239227 -1.894440 -1.293020 5.189289 -37.748007 0.168144 -0.000001 -0.000004 0.000000 -0.000000 0.000000 -65.716426 20.510097 -19.693363 55.392855 4.292594 1.569870 -14.230837 -3.478420 23.303270 -0.002467 0.000004 -0.000004 -0.000000 0.000000 -0.000000 
-30.641251 74.729797 -6.715492 27.633595 -8.483464 6.331992 10.376306 1.659270 -3.040099 19.101536 5.039969 -3.912063 19.103426 5.077803 -3.756936 13.253088 7.292961 2.719662 5.681630 44.335502 -5.272299 0.000000 -0.000002 0.000000 2.824466 -11.826379 -2.681956 -13.151751 18.331727 -61.194438 -0.000004 -14.306161 0.000005 -33.998312 -28.436584 -23.145269 -1.540036 3.690168 6.142358 3.946762 7.971419 0.752846 -0.575603 1.586241 2.542385 0.000000 0.000001 -0.000001 0.000001 -0.000016 0.000003 -0.000003 0.000009 -0.000031 0.000001 -0.000001 -0.000003 -0.000000 -0.000000 -0.000002 -0.000003 -0.001944 0.015986 0.000002 0.001929 -0.015986 -0.000001 -0.000005 0.000001 -0.000000 0.000002 0.000001 0.000001 -0.000016 0.000003 -0.000003 0.000014 -0.000017 0.000001 -0.000009 -0.000001 -0.000000 -0.000000 0.000000 -0.018092 4.054240 0.511069 -0.018084 -4.054238 -0.511069 0.000001 -0.000000 0.000001 0.000002 -0.000003 0.000001 0.184850 0.264706 -12.382342 -84.317176 35.494273 67.139448 0.000000 0.069160 -0.000016 6.154086 5.492048 -27.834486 -1.849250 -3.581791 -6.586138 4.645040 -8.656791 -0.231320 -1.269827 0.126054 -2.098676 0.000001 -0.000004 0.000003 0.000001 -0.000006 -0.000013 0.000002 -0.000007 0.000032 -0.000001 0.000014 0.000022 -0.000000 -0.000001 -0.000000 0.000002 -0.000006 -0.000014 0.000003 -0.000004 0.000033 -0.000001 0.000006 0.000019 0.000000 0.000001 -0.000001 0.000001 -0.000006 -0.000012 0.000001 -0.000004 0.000028 -0.000004 0.000016 0.000023 0.000001 -0.000003 0.000001 0.000001 -0.000006 -0.000014 0.000001 -0.000007 0.000033 -0.000002 0.000017 0.000024 0.000002 0.000002 -0.000001 -48.977658 -6.825964 39.003730 29.009938 -5.892064 -1.826198 -0.451718 4.929620 -37.565859 -0.268293 0.000001 -0.000007 -0.000000 0.000000 -0.000000 -64.212009 20.608120 -19.565053 52.673056 4.454726 1.341482 -13.458816 -3.167892 23.181126 0.010418 0.000001 0.000007 0.000000 0.000000 -0.000000 
-30.494953 76.944305 -6.112202 26.781158 -9.043643 7.779585 10.238533 2.027938 -2.635377 19.002165 5.255917 -3.928326 19.006405 5.358477 -3.804063 12.142298 7.474571 2.720679 6.502709 44.364951 -5.175893 0.000000 0.000000 0.000000 2.635966 -10.684269 -2.904231 -5.617583 21.734430 -64.461618 -0.000010 -10.627344 0.000005 -34.188990 -28.619457 -24.503380 -1.540037 3.690162 6.142358 3.946763 7.971418 0.752846 -0.575606 1.586245 2.542383 -0.000002 0.000001 -0.000002 0.000001 -0.000016 0.000004 -0.000000 0.000010 -0.000028 -0.000000 0.000000 -0.000005 0.000000 -0.000003 -0.000001 -0.000002 -0.001942 0.015987 0.000001 0.001931 -0.015988 0.000002 -0.000006 0.000001 -0.000000 0.000001 0.000004 0.000001 -0.000016 0.000006 -0.000002 0.000013 -0.000023 0.000004 -0.000007 -0.000002 -0.000000 0.000001 0.000001 -0.018093 4.054243 0.511072 -0.018087 -4.054237 -0.511076 0.000001 0.000000 -0.000003 0.000003 -0.000003 0.000001 -0.143268 -0.269453 -16.868516 -88.724219 41.854617 62.721238 -0.000005 0.000023 0.000010 4.266798 3.104685 -25.306631 -1.849249 -3.581794 -6.586139 4.645039 -8.656793 -0.231321 -1.269826 0.126061 -2.098674 0.000000 0.000003 0.000002 0.000003 -0.000005 -0.000013 0.000004 -0.000004 0.000028 -0.000001 0.000013 0.000024 0.000002 0.000001 -0.000001 0.000003 -0.000005 -0.000013 0.000005 -0.000006 0.000033 0.000000 0.000006 0.000018 -0.000000 0.000000 -0.000002 0.000004 -0.000004 -0.000007 0.000002 -0.000005 0.000029 0.000002 0.000013 0.000023 0.000000 -0.000000 -0.000002 0.000003 -0.000005 -0.000013 0.000005 -0.000006 0.000032 -0.000002 0.000014 0.000022 0.000004 0.000001 0.000001 -45.944367 -4.156025 37.357105 25.186586 -5.504646 -1.722928 2.217059 4.239693 -37.393568 -1.529298 0.000004 0.000011 -0.000000 0.000000 -0.000000 -61.244783 19.831996 -20.445026 49.371930 5.345925 1.121929 -12.663270 -2.795636 22.546369 0.001433 0.000004 0.000002 0.000000 -0.000000 -0.000000 
-30.176722 79.436638 -5.472713 25.754313 -8.785782 9.244665 10.058889 2.066198 -2.340018 18.729685 5.059775 -3.785923 18.725515 5.176935 -3.695522 11.303958 7.744953 2.217941 7.247010 44.394242 -4.666503 -0.000000 -0.000001 0.000000 2.326853 -8.565020 -2.221031 3.167852 23.916811 -68.434712 -0.000003 -7.943177 0.000001 -34.527641 -28.113504 -26.246528 -1.540038 3.690168 6.142352 3.946762 7.971416 0.752844 -0.575602 1.586245 2.542386 -0.000003 0.000005 0.000001 0.000001 -0.000017 0.000001 0.000001 0.000009 -0.000028 0.000001 0.000000 -0.000004 0.000000 0.000000 -0.000002 0.000000 -0.001948 0.015985 0.000004 0.001931 -0.015988 -0.000002 -0.000007 -0.000001 -0.000001 -0.000000 -0.000002 0.000001 -0.000017 -0.000000 -0.000000 0.000015 -0.000022 0.000000 -0.000006 0.000002 0.000001 -0.000000 -0.000000 -0.018090 4.054238 0.511066 -0.018085 -4.054240 -0.511073 -0.000002 0.000003 -0.000000 -0.000002 -0.000001 0.000002 -0.381762 -0.367249 -20.634548 -90.108322 47.274263 57.093865 0.000007 0.000011 -0.000008 2.895339 1.748966 -21.435195 -1.849250 -3.581796 -6.586140 4.645042 -8.656793 -0.231319 -1.269826 0.126056 -2.098673 -0.000000 -0.000002 0.000000 0.000003 -0.000008 -0.000011 0.000004 -0.000009 0.000030 -0.000001 0.000014 0.000026 -0.000000 -0.000000 0.000002 0.000003 -0.000008 -0.000010 0.000002 -0.000008 0.000031 0.000001 0.000006 0.000022 0.000001 -0.000000 -0.000001 0.000003 -0.000008 -0.000010 0.000001 -0.000007 0.000032 0.000001 0.000014 0.000023 0.000002 0.000000 -0.000000 0.000003 -0.000008 -0.000010 0.000003 -0.000008 0.000032 0.000001 0.000015 0.000024 0.000001 -0.000001 0.000001 -43.972502 -2.094823 34.810039 21.298760 -5.300991 -1.591726 7.406435 2.892712 -37.230022 -3.713498 -0.000000 -0.000000 0.000000 0.000000 0.000000 -57.677177 18.498068 -22.316916 45.645557 6.415617 0.955976 -11.807659 -2.450222 21.719194 -0.002259 -0.000003 0.000002 -0.000000 0.000000 -0.000000 
